HIERARCHY
ROOT Hips
{
	OFFSET 0.000000 83.214638 0.000000
	CHANNELS 6 Xposition Yposition Zposition Xrotation Yrotation Zrotation
	JOINT Pelvis
	{
		OFFSET 0.000000 0.000000 0.000000
		CHANNELS 3 Xrotation Yrotation Zrotation
		JOINT LeftUpLeg
		{
			OFFSET 8.479700 -4.795502 -0.379100
			CHANNELS 3 Xrotation Yrotation Zrotation
			JOINT LeftLeg
			{
				OFFSET 0.024144 -32.555107 0.112900
				CHANNELS 3 Xrotation Yrotation Zrotation
				JOINT LeftFoot
				{
					OFFSET -0.024144 -32.638630 -3.012600
					CHANNELS 3 Xrotation Yrotation Zrotation
					JOINT LeftToeBase
					{
						OFFSET 0.970200 -13.225400 11.864200
						CHANNELS 3 Xrotation Yrotation Zrotation
						End Site
						{
							OFFSET 0.000000 12.319262 0.000000
						}
					}
					JOINT LFootTongue
					{
						OFFSET 1.142400 -1.059800 6.665200
						CHANNELS 3 Xrotation Yrotation Zrotation
						End Site
						{
							OFFSET 0.000000 12.319262 0.000000
						}
					}
				}
				JOINT LeftPantLeg
				{
					OFFSET 0.918482 -16.533964 -2.284700
					CHANNELS 3 Xrotation Yrotation Zrotation
					End Site
					{
						OFFSET 0.350399 24.744368 0.000000
					}
				}
			}
		}
		JOINT RightUpLeg
		{
			OFFSET -8.479700 -4.795502 -0.379100
			CHANNELS 3 Xrotation Yrotation Zrotation
			JOINT RightLeg
			{
				OFFSET -0.023144 -32.555092 0.112900
				CHANNELS 3 Xrotation Yrotation Zrotation
				JOINT RightFoot
				{
					OFFSET 0.023144 -32.638641 -3.012700
					CHANNELS 3 Xrotation Yrotation Zrotation
					JOINT RightToeBase
					{
						OFFSET -0.970200 -13.225400 11.864200
						CHANNELS 3 Xrotation Yrotation Zrotation
						End Site
						{
							OFFSET 0.000000 12.319244 0.000000
						}
					}
					JOINT RFootTongue
					{
						OFFSET -1.142200 -1.059800 6.665200
						CHANNELS 3 Xrotation Yrotation Zrotation
						End Site
						{
							OFFSET 0.000000 12.319243 0.000000
						}
					}
				}
				JOINT RightPantLeg
				{
					OFFSET -0.919482 -16.533978 -2.284800
					CHANNELS 3 Xrotation Yrotation Zrotation
					End Site
					{
						OFFSET -0.350400 24.744419 0.000000
					}
				}
			}
		}
	}
	JOINT Spine
	{
		OFFSET 0.000000 7.722000 1.166200
		CHANNELS 3 Xrotation Yrotation Zrotation
		JOINT Spine1
		{
			OFFSET 0.000000 12.024101 0.248800
			CHANNELS 3 Xrotation Yrotation Zrotation
			JOINT Spine2
			{
				OFFSET 0.000000 11.502998 -0.491200
				CHANNELS 3 Xrotation Yrotation Zrotation
				JOINT Neck
				{
					OFFSET 0.000000 18.430702 -3.123100
					CHANNELS 3 Xrotation Yrotation Zrotation
					JOINT Head
					{
						OFFSET 0.000000 9.051102 1.034000
						CHANNELS 3 Xrotation Yrotation Zrotation
						JOINT HairB
						{
							OFFSET 0.208400 24.786102 24.822300
							CHANNELS 3 Xrotation Yrotation Zrotation
							End Site
							{
								OFFSET 0.000000 32.263779 0.000000
							}
						}
						JOINT HairA
						{
							OFFSET -7.081100 24.428299 23.196600
							CHANNELS 3 Xrotation Yrotation Zrotation
							End Site
							{
								OFFSET 0.000000 32.263779 0.000000
							}
						}
						JOINT Hat
						{
							OFFSET 16.728800 15.048294 -15.439601
							CHANNELS 3 Xrotation Yrotation Zrotation
							End Site
							{
								OFFSET 0.000000 32.263779 0.000000
							}
						}
					}
				}
				JOINT LeftShoulder
				{
					OFFSET 6.197800 13.665199 -4.064700
					CHANNELS 3 Xrotation Yrotation Zrotation
					JOINT LeftArm
					{
						OFFSET 7.778100 -0.187103 -1.709300
						CHANNELS 3 Xrotation Yrotation Zrotation
						JOINT LeftForeArm
						{
							OFFSET 22.049376 0.000000 0.000000
							CHANNELS 3 Xrotation Yrotation Zrotation
							JOINT LeftHand
							{
								OFFSET 23.009392 0.000000 0.000000
								CHANNELS 3 Xrotation Yrotation Zrotation
								JOINT LeftHandThumb1
								{
									OFFSET 3.507191 -2.063065 3.133727
									CHANNELS 3 Xrotation Yrotation Zrotation
									JOINT LeftHandThumb2
									{
										OFFSET 3.101337 -1.790558 1.790558
										CHANNELS 3 Xrotation Yrotation Zrotation
										JOINT LeftHandThumb3
										{
											OFFSET 3.058640 -1.765907 1.765906
											CHANNELS 3 Xrotation Yrotation Zrotation
											End Site
											{
												OFFSET -0.415260 3.926476 -0.049563
											}
										}
									}
								}
								JOINT LeftHandIndex1
								{
									OFFSET 11.334419 -0.901459 3.706815
									CHANNELS 3 Xrotation Yrotation Zrotation
									JOINT LeftHandIndex2
									{
										OFFSET 3.283112 0.000000 0.000000
										CHANNELS 3 Xrotation Yrotation Zrotation
										JOINT LeftHandIndex3
										{
											OFFSET 3.323853 0.000000 0.000000
											CHANNELS 3 Xrotation Yrotation Zrotation
											End Site
											{
												OFFSET -1.135597 3.097809 0.402452
											}
										}
									}
								}
								JOINT LeftHandMiddle1
								{
									OFFSET 11.335861 0.000000 0.000000
									CHANNELS 3 Xrotation Yrotation Zrotation
									JOINT LeftHandMiddle2
									{
										OFFSET 3.410492 0.000000 0.000000
										CHANNELS 3 Xrotation Yrotation Zrotation
										JOINT LeftHandMiddle3
										{
											OFFSET 3.312172 0.000000 0.000000
											CHANNELS 3 Xrotation Yrotation Zrotation
											End Site
											{
												OFFSET -1.150200 3.080154 0.400270
											}
										}
									}
								}
								JOINT LeftHandRing1
								{
									OFFSET 11.514786 -0.013176 -3.003090
									CHANNELS 3 Xrotation Yrotation Zrotation
									JOINT LeftHandRing2
									{
										OFFSET 3.053307 0.000000 0.000000
										CHANNELS 3 Xrotation Yrotation Zrotation
										JOINT LeftHandRing3
										{
											OFFSET 3.295807 0.000000 0.000000
											CHANNELS 3 Xrotation Yrotation Zrotation
											End Site
											{
												OFFSET -1.281006 3.013344 0.375733
											}
										}
									}
								}
								JOINT LeftHandPinky1
								{
									OFFSET 10.518692 -0.960396 -5.730441
									CHANNELS 3 Xrotation Yrotation Zrotation
									JOINT LeftHandPinky2
									{
										OFFSET 2.861649 0.000000 0.000000
										CHANNELS 3 Xrotation Yrotation Zrotation
										JOINT LeftHandPinky3
										{
											OFFSET 2.863380 0.000000 0.000000
											CHANNELS 3 Xrotation Yrotation Zrotation
											End Site
											{
												OFFSET -0.843597 2.711159 0.369971
											}
										}
									}
								}
							}
							JOINT LSleeve
							{
								OFFSET 6.676277 -0.344902 -1.011730
								CHANNELS 3 Xrotation Yrotation Zrotation
								End Site
								{
									OFFSET 0.000000 14.885353 0.000000
								}
							}
						}
					}
				}
				JOINT RightShoulder
				{
					OFFSET -6.197800 13.665199 -4.064700
					CHANNELS 3 Xrotation Yrotation Zrotation
					JOINT RightArm
					{
						OFFSET -7.778100 -0.187103 -1.709300
						CHANNELS 3 Xrotation Yrotation Zrotation
						JOINT RightForeArm
						{
							OFFSET -22.049376 0.000000 0.000000
							CHANNELS 3 Xrotation Yrotation Zrotation
							JOINT RightHand
							{
								OFFSET -23.009392 0.000000 0.000000
								CHANNELS 3 Xrotation Yrotation Zrotation
								JOINT RightHandThumb1
								{
									OFFSET -3.507191 -2.063065 3.133727
									CHANNELS 3 Xrotation Yrotation Zrotation
									JOINT RightHandThumb2
									{
										OFFSET -3.101337 -1.790558 1.790558
										CHANNELS 3 Xrotation Yrotation Zrotation
										JOINT RightHandThumb3
										{
											OFFSET -3.058640 -1.765907 1.765906
											CHANNELS 3 Xrotation Yrotation Zrotation
											End Site
											{
												OFFSET 0.415260 3.926476 -0.049563
											}
										}
									}
								}
								JOINT RightHandIndex1
								{
									OFFSET -11.334419 -0.901459 3.706815
									CHANNELS 3 Xrotation Yrotation Zrotation
									JOINT RightHandIndex2
									{
										OFFSET -3.283112 0.000000 0.000000
										CHANNELS 3 Xrotation Yrotation Zrotation
										JOINT RightHandIndex3
										{
											OFFSET -3.323853 0.000000 0.000000
											CHANNELS 3 Xrotation Yrotation Zrotation
											End Site
											{
												OFFSET 1.135597 3.097809 0.402452
											}
										}
									}
								}
								JOINT RightHandMiddle1
								{
									OFFSET -11.335861 0.000000 0.000000
									CHANNELS 3 Xrotation Yrotation Zrotation
									JOINT RightHandMiddle2
									{
										OFFSET -3.410492 0.000000 0.000000
										CHANNELS 3 Xrotation Yrotation Zrotation
										JOINT RightHandMiddle3
										{
											OFFSET -3.312172 0.000000 0.000000
											CHANNELS 3 Xrotation Yrotation Zrotation
											End Site
											{
												OFFSET 1.150200 3.080154 0.400270
											}
										}
									}
								}
								JOINT RightHandRing1
								{
									OFFSET -11.514786 -0.013176 -3.003090
									CHANNELS 3 Xrotation Yrotation Zrotation
									JOINT RightHandRing2
									{
										OFFSET -3.053307 0.000000 0.000000
										CHANNELS 3 Xrotation Yrotation Zrotation
										JOINT RightHandRing3
										{
											OFFSET -3.295807 0.000000 0.000000
											CHANNELS 3 Xrotation Yrotation Zrotation
											End Site
											{
												OFFSET 1.281006 3.013344 0.375733
											}
										}
									}
								}
								JOINT RightHandPinky1
								{
									OFFSET -10.518692 -0.960396 -5.730441
									CHANNELS 3 Xrotation Yrotation Zrotation
									JOINT RightHandPinky2
									{
										OFFSET -2.861649 0.000000 0.000000
										CHANNELS 3 Xrotation Yrotation Zrotation
										JOINT RightHandPinky3
										{
											OFFSET -2.863380 0.000000 0.000000
											CHANNELS 3 Xrotation Yrotation Zrotation
											End Site
											{
												OFFSET 0.843597 2.711159 0.369971
											}
										}
									}
								}
							}
							JOINT RSleeve
							{
								OFFSET -6.676277 -0.344902 -1.011730
								CHANNELS 3 Xrotation Yrotation Zrotation
								End Site
								{
									OFFSET 0.000000 14.885353 0.000000
								}
							}
						}
					}
				}
				JOINT Backpack
				{
					OFFSET 0.000000 -2.471497 36.677502
					CHANNELS 3 Xrotation Yrotation Zrotation
					End Site
					{
						OFFSET 0.000000 20.427315 0.000000
					}
				}
				JOINT Hood
				{
					OFFSET 0.000000 18.754097 -10.431000
					CHANNELS 3 Xrotation Yrotation Zrotation
					JOINT Hood1
					{
						OFFSET 0.000000 -5.011002 -7.685901
						CHANNELS 3 Xrotation Yrotation Zrotation
						End Site
						{
							OFFSET 0.000000 9.175140 0.000000
						}
					}
				}
				JOINT LHoodieString
				{
					OFFSET 5.250500 16.397697 3.089900
					CHANNELS 3 Xrotation Yrotation Zrotation
					JOINT LHoodieString1
					{
						OFFSET 0.257700 -6.364304 3.694600
						CHANNELS 3 Xrotation Yrotation Zrotation
						JOINT LHoodieString2
						{
							OFFSET 0.000000 -9.643799 2.679100
							CHANNELS 3 Xrotation Yrotation Zrotation
							End Site
							{
								OFFSET 0.000000 10.009018 0.000000
							}
						}
					}
				}
				JOINT RHoodieString
				{
					OFFSET -5.250500 16.397697 3.089900
					CHANNELS 3 Xrotation Yrotation Zrotation
					JOINT RHoodieString1
					{
						OFFSET -0.257700 -6.364304 3.694600
						CHANNELS 3 Xrotation Yrotation Zrotation
						JOINT RHoodieString2
						{
							OFFSET 0.000000 -9.643799 2.679100
							CHANNELS 3 Xrotation Yrotation Zrotation
							End Site
							{
								OFFSET 0.000000 10.009018 0.000000
							}
						}
					}
				}
			}
			JOINT LBackpack_Strap
			{
				OFFSET 15.223200 -7.719803 -6.610900
				CHANNELS 3 Xrotation Yrotation Zrotation
				End Site
				{
					OFFSET 0.000000 16.040596 0.000000
				}
			}
			JOINT RBackpack_Strap
			{
				OFFSET -15.223000 -7.719803 -6.610900
				CHANNELS 3 Xrotation Yrotation Zrotation
				End Site
				{
					OFFSET 0.000000 16.040596 0.000000
				}
			}
		}
	}
	JOINT BoyFacialAnim_Joint
	{
		OFFSET 1.000000 -82.208099 -1.550900
		CHANNELS 3 Xrotation Yrotation Zrotation
		End Site
		{
			OFFSET 0.000000 30.012791 0.000000
		}
	}
}
MOTION
Frames: 4
Frame Time: 0.016667
-5.295090 88.283905 147.906433 19.866392 8.956775 -0.623658 0.000000 0.000000 -0.000000 -23.192322 10.174007 11.805066 51.058587 18.767077 -0.581830 16.234745 -0.911659 5.100354 -0.000001 -0.000001 -0.000000 -0.000001 -0.000001 -0.000000 0.000001 0.000003 -0.000001 -58.612981 -27.328698 -12.473070 41.142058 2.923954 -12.701908 29.822634 2.081305 2.241935 0.000003 -0.000001 0.000001 0.000003 -0.000001 0.000001 0.000000 -0.000001 0.000000 -2.300468 -0.713227 -0.222479 -4.594412 -1.061328 0.101277 -4.594415 -1.061326 0.101277 -4.837210 3.021062 -5.623375 -32.648280 -0.269693 4.329763 -0.000001 -0.000001 -0.000000 -0.000001 -0.000001 -0.000000 -0.000001 -0.000001 -0.000000 10.044626 0.256262 32.051219 -48.561723 -10.210817 11.799403 -38.609857 -41.548502 -5.423187 -8.226030 -2.522797 4.213907 -23.472539 9.007654 3.988072 -11.828211 8.162161 13.621969 0.000000 -0.000000 -0.000000 0.517238 -9.570567 -64.785492 -8.375099 -2.932922 -78.721571 -0.000001 0.000000 -0.000005 -5.938087 -5.207438 -62.769637 -4.744694 -4.396632 -66.090106 -0.000001 0.000001 0.000002 -10.844904 5.489527 -65.803887 -0.072846 -6.647468 -74.360017 -0.000000 0.000001 -0.000004 -15.557615 3.779196 -61.887770 0.800054 -8.229567 -69.702996 -0.000001 0.000000 -0.000000 0.000001 0.000000 -0.000001 -8.323182 -24.135442 -40.312681 -89.460363 26.675435 38.968254 -28.899586 50.290867 -7.128686 27.282156 -4.258687 14.891587 -17.327357 6.468819 -26.575880 3.068497 -20.322328 1.170425 0.000003 0.000001 0.000000 -7.162290 5.305811 74.913132 -5.538923 0.850709 81.608022 -0.000001 -0.000000 0.000000 -11.692851 2.849405 77.860291 -5.590896 1.103046 82.945394 0.000002 0.000000 0.000002 -13.276875 -6.839438 73.034871 -0.147265 7.076623 77.106518 -0.000001 0.000000 0.000000 -17.725131 -11.413763 72.297634 1.238875 11.805317 72.406016 -0.000001 -0.000002 0.000003 -0.000001 0.000001 0.000001 0.000001 -0.000000 -0.000000 0.000001 -0.000000 -0.000000 0.000001 -0.000000 -0.000000 0.000001 -0.000000 -0.000000 0.000001 -0.000000 0.000000 0.000000 -0.000000 -0.000000 0.000001 -0.000000 -0.000000 0.000001 -0.000000 0.000000 0.000000 -0.000000 -0.000000 -0.000000 0.000000 -0.000000 -0.000000 0.000000 -0.000000 0.000000 0.000000 -0.000000 
-5.335926 86.801956 150.750702 17.729242 9.603919 -0.741832 0.000000 -0.000000 0.000000 -22.126770 8.402383 11.414511 49.997893 20.543408 -1.912139 15.445851 -1.368771 4.831470 -0.000001 -0.000001 0.000001 -0.000001 -0.000001 0.000001 -0.000003 -0.000001 0.000000 -59.705764 -26.829302 -12.590469 43.178837 2.514036 -13.054335 28.924803 1.158967 0.974055 0.000002 -0.000001 0.000002 0.000002 -0.000001 0.000002 0.000000 0.000002 -0.000000 -2.117984 -0.815689 -0.274825 -4.226089 -1.236034 0.160241 -4.226095 -1.236038 0.160241 -3.390466 3.136790 -5.040334 -32.061424 -0.495306 4.132349 0.000001 0.000000 0.000000 0.000001 0.000000 0.000000 0.000001 0.000000 0.000000 9.560697 1.178740 31.958612 -47.982154 -11.494730 12.850385 -37.736201 -39.139579 -4.480681 -9.326630 -3.180901 7.039136 -23.461932 9.089808 3.969069 -11.828220 8.162158 13.621978 0.000000 -0.000001 -0.000000 0.903540 -9.378146 -63.393383 -8.389074 -2.928302 -78.861200 -0.000002 0.000001 -0.000002 -5.628289 -5.175342 -61.630013 -4.775323 -4.405093 -66.429067 -0.000001 -0.000000 0.000002 -10.813716 5.370661 -64.788456 -0.084337 -6.654581 -74.482776 -0.000002 -0.000001 -0.000004 -15.534579 3.805875 -61.859903 0.782680 -8.240926 -69.919731 0.000001 0.000001 -0.000002 0.000001 0.000000 0.000001 -8.892191 -24.277771 -41.378242 -86.632685 27.564755 36.099408 -30.016619 48.103602 -7.287925 26.156951 -4.467119 12.106702 -17.327358 6.468833 -26.575911 3.068495 -20.322337 1.170435 -0.000001 0.000001 -0.000001 -7.160167 4.909963 76.768847 -5.512912 0.851701 81.188539 -0.000002 0.000001 0.000004 -11.756412 2.716012 78.851283 -5.590532 1.102813 82.959922 -0.000003 -0.000001 0.000001 -13.231563 -7.033053 74.164441 -0.159612 7.085945 77.218827 -0.000003 0.000000 0.000002 -17.608904 -11.756203 74.042857 1.242297 11.802444 72.382971 0.000000 -0.000002 0.000002 0.000002 -0.000001 0.000001 -0.000000 0.000000 -0.000000 -0.000000 0.000000 -0.000000 -0.000000 0.000000 -0.000000 -0.000000 0.000000 -0.000000 -0.000000 0.000000 -0.000000 -0.000000 0.000000 0.000000 -0.000000 0.000000 -0.000000 -0.000000 0.000000 -0.000000 -0.000000 0.000000 0.000000 0.000001 -0.000001 -0.000000 0.000001 -0.000001 -0.000000 0.000000 -0.000000 0.000000 
-5.344845 85.260269 153.461700 15.553353 10.282851 -0.886573 0.000001 0.000001 -0.000000 -22.133571 6.148794 10.854267 50.419288 21.761959 -3.176353 13.898165 -1.867454 3.825025 0.000002 0.000000 -0.000000 0.000002 0.000000 -0.000002 0.000001 0.000001 0.000002 -60.814167 -26.335364 -12.611505 45.868569 1.994725 -13.774462 27.578239 0.237025 0.062541 0.000001 0.000001 -0.000000 0.000001 0.000001 -0.000000 0.000000 -0.000000 0.000000 -1.886291 -0.940214 -0.286679 -3.758563 -1.458368 0.264352 -3.758559 -1.458363 0.264352 -2.312997 3.118226 -4.492906 -31.180042 -0.574888 3.975778 0.000001 0.000000 -0.000000 0.000001 0.000000 -0.000000 0.000001 0.000000 -0.000000 9.718425 1.273663 32.721923 -47.199852 -10.995449 14.448379 -37.509350 -36.402975 -3.708631 -10.609605 -4.159266 8.444633 -23.450761 9.176003 3.949054 -11.828237 8.162163 13.621993 0.000002 -0.000001 0.000002 1.276597 -9.117632 -62.457067 -8.382866 -2.929981 -78.798410 -0.000000 -0.000001 -0.000005 -5.280006 -5.045778 -60.690793 -4.795424 -4.410523 -66.652456 0.000000 0.000001 0.000004 -10.792179 5.278083 -63.907000 -0.092880 -6.659758 -74.573488 -0.000003 0.000002 -0.000000 -15.475107 3.968996 -62.080634 0.761134 -8.254681 -70.188793 -0.000001 -0.000002 -0.000001 0.000000 0.000000 0.000001 -8.350551 -23.530587 -42.083193 -83.150108 28.065871 30.864611 -31.664381 45.607482 -6.457762 24.627309 -4.700917 9.780982 -17.327358 6.468807 -26.575913 3.068492 -20.322325 1.170411 0.000001 -0.000000 0.000001 -7.022609 4.477174 78.237672 -5.477275 0.852847 80.617604 -0.000002 -0.000001 0.000002 -11.748771 2.655335 79.261634 -5.590964 1.102369 83.000438 0.000001 0.000001 0.000000 -13.176007 -7.192379 75.017409 -0.177982 7.099723 77.385374 -0.000002 -0.000003 0.000002 -17.476383 -12.103223 75.594013 1.245883 11.799140 72.352126 -0.000000 0.000001 0.000002 0.000001 -0.000001 -0.000001 0.000000 -0.000000 0.000000 0.000000 -0.000000 0.000000 0.000000 -0.000000 0.000000 0.000000 -0.000000 0.000000 0.000000 -0.000000 0.000000 0.000000 -0.000000 -0.000000 0.000000 -0.000000 0.000000 0.000000 -0.000000 0.000000 0.000000 -0.000000 -0.000000 0.000002 0.000001 -0.000000 0.000002 0.000001 -0.000000 0.000001 0.000001 -0.000000 
-5.348938 84.357384 156.012177 13.425293 10.975109 -1.079029 -0.000000 0.000001 -0.000000 -22.792367 5.457603 10.040345 49.495649 21.338194 -2.946270 12.756629 -2.228077 2.757269 0.000002 -0.000001 0.000001 0.000002 -0.000001 0.000002 0.000003 -0.000002 0.000001 -60.543268 -26.242779 -12.715402 46.303621 1.244603 -13.662157 27.065260 0.032740 -1.556497 0.000002 0.000000 -0.000000 0.000002 0.000000 -0.000000 -0.000000 0.000000 0.000000 -1.580491 -1.080693 -0.221299 -3.141671 -1.730179 0.476075 -3.141671 -1.730182 0.476075 -2.080886 2.816535 -4.488245 -29.703584 -0.759591 4.181480 0.000001 0.000000 -0.000000 0.000001 0.000000 -0.000000 0.000001 0.000000 -0.000000 10.358787 0.430481 33.938650 -46.303048 -6.882819 15.495946 -38.881842 -37.359496 -3.729794 -11.776479 -3.759865 8.715745 -23.439386 9.263864 3.928521 -11.828224 8.162107 13.621954 0.000000 -0.000001 0.000002 1.545933 -8.908068 -61.901103 -8.376379 -2.931792 -78.732718 -0.000001 0.000001 -0.000002 -5.021030 -4.932626 -60.084819 -4.812809 -4.415186 -66.846891 -0.000000 -0.000001 0.000002 -10.776113 5.182502 -63.138986 -0.100348 -6.664260 -74.651345 0.000000 0.000001 -0.000000 -15.429573 4.090072 -62.244504 0.743173 -8.265979 -70.408500 -0.000001 -0.000001 -0.000000 -0.000001 -0.000000 -0.000003 -7.764605 -22.718971 -42.791101 -79.909744 26.708365 26.192515 -32.094717 45.832823 -5.888949 22.708559 -5.865439 8.746413 -17.327355 6.468856 -26.575899 3.068479 -20.322280 1.170423 0.000000 0.000001 0.000001 -6.865580 4.152949 79.210312 -5.445862 0.853596 80.114731 -0.000000 0.000000 0.000002 -11.662132 2.647389 79.130064 -5.594067 1.101168 83.123976 0.000000 -0.000001 0.000001 -13.125744 -7.256965 75.195021 -0.202098 7.117653 77.603435 -0.000001 -0.000003 0.000000 -17.379312 -12.303810 76.241468 1.231307 11.811419 72.469373 -0.000002 0.000001 -0.000003 0.000000 -0.000001 -0.000001 0.000000 0.000001 0.000000 0.000000 0.000001 0.000000 0.000000 0.000001 0.000000 0.000000 0.000001 0.000000 0.000000 0.000001 0.000000 0.000000 0.000001 0.000000 0.000000 0.000001 0.000000 0.000000 0.000001 0.000000 0.000000 0.000001 0.000000 0.000000 -0.000000 0.000000 0.000000 -0.000000 0.000000 -0.000000 0.000001 -0.000000 
